<svg id="eHWVt1i9JeY1" xmlns="http://www.w3.org/2000/svg" xmlns:xlink="http://www.w3.org/1999/xlink" viewBox="0 0 300 300" shape-rendering="geometricPrecision" text-rendering="geometricPrecision" project-id="c2b0837b55ff4d33b2d1d6ffea8a961a" export-id="88ea67a262dc4b56906a354ed5c2dc59" cached="false"><g transform="matrix(1.10398 0 0 1.52961-15.667534-79.441884)"><g transform="translate(17.5329-.000002)"><g transform="translate(-25.7855-9.30751)"><path d="M130.83411,85.416997h-16.265207L75.997125,159.307512" transform="translate(.000001 0.000001)" fill="none" stroke="#00ff5e"/><path d="M130.83411,85.416997h-16.265207L75.997125,159.307512" transform="matrix(-1 0 0-1 206.831 244.725)" fill="none" stroke="#00ff5e"/></g><g transform="translate(-64.2341-9.30751)"><path d="M130.83411,85.416997h-16.265207L75.997125,159.307512" transform="translate(.000001 0.000001)" fill="none" stroke="#00ff5e"/><path d="M130.83411,85.416997h-16.265207L75.997125,159.307512" transform="matrix(-1 0 0-1 206.831 244.725)" fill="none" stroke="#00ff5e"/></g><g transform="matrix(1 0 0-1-25.7855 309.307)"><path d="M130.83411,85.416997h-16.265207L75.997125,159.307512" transform="translate(.000001 0.000001)" fill="none" stroke="#00ff5e"/><path d="M130.83411,85.416997h-16.265207L75.997125,159.307512" transform="matrix(-1 0 0-1 206.831 244.725)" fill="none" stroke="#00ff5e"/></g></g><g transform="translate(72.3698 0.000009)"><g transform="translate(-25.7855-9.30751)"><path d="M130.83411,85.416997h-16.265207L75.997125,159.307512" transform="translate(.000001 0.000001)" fill="none" stroke="#00ff5e"/><path d="M130.83411,85.416997h-16.265207L75.997125,159.307512" transform="matrix(-1 0 0-1 206.831 244.725)" fill="none" stroke="#00ff5e"/></g><g transform="matrix(1 0 0-1-25.7855 309.307)"><path d="M130.83411,85.416997h-16.265207L75.997125,159.307512" transform="translate(.000001 0.000001)" fill="none" stroke="#00ff5e"/><path d="M130.83411,85.416997h-16.265207L75.997125,159.307512" transform="matrix(-1 0 0-1 206.831 244.725)" fill="none" stroke="#00ff5e"/></g></g><g transform="matrix(-1 0 0 1 282.467 0.000018)"><g transform="translate(-25.7855-9.30751)"><path d="M130.83411,85.416997h-16.265207L75.997125,159.307512" transform="translate(.000001 0.000001)" fill="none" stroke="#00ff5e"/><path d="M130.83411,85.416997h-16.265207L75.997125,159.307512" transform="matrix(-1 0 0-1 206.831 244.725)" fill="none" stroke="#00ff5e"/></g><g transform="matrix(1 0 0-1-25.7855 309.307)"><path d="M130.83411,85.416997h-16.265207L75.997125,159.307512" transform="translate(.000001 0.000001)" fill="none" stroke="#00ff5e"/><path d="M130.83411,85.416997h-16.265207L75.997125,159.307512" transform="matrix(-1 0 0-1 206.831 244.725)" fill="none" stroke="#00ff5e"/></g></g><g transform="translate(139.998 64.583)"><path d="M130.83411,85.416997h-16.265207L75.997125,159.307512" transform="translate(.000001 0.000001)" fill="none" stroke="#00ff5e"/><path d="M130.83411,85.416997h-16.265207L75.997125,159.307512" transform="matrix(-1 0 0-1 206.831 244.725)" fill="none" stroke="#00ff5e"/></g></g></svg>
