<svg id="eZDcydlhC261" xmlns="http://www.w3.org/2000/svg" xmlns:xlink="http://www.w3.org/1999/xlink" viewBox="0 0 300 300" shape-rendering="geometricPrecision" text-rendering="geometricPrecision" project-id="c2b0837b55ff4d33b2d1d6ffea8a961a" export-id="b6692c2c421f4fc6ab45ea7922269457" cached="false"><g transform="matrix(1.103975 0 0 1.529606-15.602929-79.440903)"><g transform="translate(17.532852-.000002)"><g transform="translate(-25.785456-9.30751)"><path d="M130.83411,85.416997h-16.265207L75.997125,159.307512" transform="translate(.000001 0.000001)" fill="#00ff5e" stroke-width="0.6"/><path d="M130.83411,85.416997h-16.265207L75.997125,159.307512" transform="matrix(-1 0 0-1 206.831235 244.724509)" fill="#00ff5e" stroke-width="0.6"/></g><g transform="translate(-64.234099-9.307513)"><path d="M130.83411,85.416997h-16.265207L75.997125,159.307512" transform="translate(.000001 0.000001)" fill="#00ff5e" stroke-width="0.6"/><path d="M130.83411,85.416997h-16.265207L75.997125,159.307512" transform="matrix(-1 0 0-1 206.831235 244.724509)" fill="#00ff5e" stroke-width="0.6"/></g><g transform="matrix(1 0 0-1-25.785452 309.30751)"><path d="M130.83411,85.416997h-16.265207L75.997125,159.307512" transform="translate(.000001 0.000001)" fill="#00ff5e" stroke-width="0.6"/><path d="M130.83411,85.416997h-16.265207L75.997125,159.307512" transform="matrix(-1 0 0-1 206.831235 244.724509)" fill="#00ff5e" stroke-width="0.6"/></g></g><g transform="translate(72.369836 0.000009)"><g transform="translate(-25.785456-9.30751)"><path d="M130.83411,85.416997h-16.265207L75.997125,159.307512" transform="translate(.000001 0.000001)" fill="#00ff5e" stroke-width="0.6"/><path d="M130.83411,85.416997h-16.265207L75.997125,159.307512" transform="matrix(-1 0 0-1 206.831235 244.724509)" fill="#00ff5e" stroke-width="0.6"/></g><g transform="matrix(1 0 0-1-25.785452 309.30751)"><path d="M130.83411,85.416997h-16.265207L75.997125,159.307512" transform="translate(.000001 0.000001)" fill="#00ff5e" stroke-width="0.6"/><path d="M130.83411,85.416997h-16.265207L75.997125,159.307512" transform="matrix(-1 0 0-1 206.831235 244.724509)" fill="#00ff5e" stroke-width="0.6"/></g></g><g transform="matrix(-1 0 0 1 282.467148 0.000018)"><g transform="translate(-25.785456-9.30751)"><path d="M130.83411,85.416997h-16.265207L75.997125,159.307512" transform="translate(.000001 0.000001)" fill="#00ff5e" stroke-width="0.6"/><path d="M130.83411,85.416997h-16.265207L75.997125,159.307512" transform="matrix(-1 0 0-1 206.831235 244.724509)" fill="#00ff5e" stroke-width="0.6"/></g><g transform="matrix(1 0 0-1-25.785452 309.30751)"><path d="M130.83411,85.416997h-16.265207L75.997125,159.307512" transform="translate(.000001 0.000001)" fill="#00ff5e" stroke-width="0.6"/><path d="M130.83411,85.416997h-16.265207L75.997125,159.307512" transform="matrix(-1 0 0-1 206.831235 244.724509)" fill="#00ff5e" stroke-width="0.6"/></g></g><g transform="translate(139.998486 64.583024)"><path d="M130.83411,85.416997h-16.265207L75.997125,159.307512" transform="translate(.000001 0.000001)" fill="#00ff5e" stroke-width="0.6"/><path d="M130.83411,85.416997h-16.265207L75.997125,159.307512" transform="matrix(-1 0 0-1 206.831235 244.724509)" fill="#00ff5e" stroke-width="0.6"/></g></g></svg>
